<svg xmlns="http://www.w3.org/2000/svg" width="265.599" height="58.024" viewBox="0 0 265.599 58.024">
  <g id="Groupe_1296" data-name="Groupe 1296" transform="translate(-295.2 209.2)">
    <g id="Groupe_1265" data-name="Groupe 1265" transform="translate(295.2 -186.877)">
      <path id="Tracé_9402" data-name="Tracé 9402" d="M296.118-46.6h13.1l-.9,5.55-3.422-.195-1.808,11.7h-6.273l1.808-11.7-3.422.195Zm14.507,0h7.566c3.825,0,6.857,1.613,6.148,5.953-.4,2.615-1.613,3.63-4.034,4.437v.1a2.951,2.951,0,0,1,.9,1l2.823,5.55H316.87L315.062-35h-.1l-.9,5.438h-6.05Zm4.938,7.552h.4c1,0,2.017-.195,2.211-1.4.195-1.307-.709-1.516-1.808-1.516h-.5Z" transform="translate(-295.2 46.892)" fill="#20458f"/>
      <path id="Tracé_9403" data-name="Tracé 9403" d="M504.751-31.272H498.2l8.665-17.135h6.857l3.422,17.135h-6.551l-.195-2.114h-4.743Zm5.035-6.245-.306-3.018a16.913,16.913,0,0,1-.1-2.211h-.195L507.268-37.5Zm10.988-10.89h5.953l4.131,9.472h.195a21.654,21.654,0,0,1,.195-4.339l.807-5.146h5.953L535.28-31.286h-5.953l-4.034-8.971H525.1a19.534,19.534,0,0,1-.195,3.422l-.9,5.55h-5.953ZM539.815-37.42l.306.195a5.47,5.47,0,0,0,3.63,1.613c.6,0,1.613-.195,1.711-1s-.709-.807-1.21-.9l-1.21-.195c-2.323-.4-4.131-1.808-3.728-4.534.6-4.034,4.743-6.356,8.359-6.356a9.02,9.02,0,0,1,5.146,1.516L550.5-42.747a5.464,5.464,0,0,0-3.422-1.307c-.5,0-1.4.195-1.516.9-.1.6.709.709,1.113.807l1.307.306c2.518.6,4.228,2.017,3.728,4.938-.6,4.131-4.632,6.148-8.359,6.148a13.773,13.773,0,0,1-6.356-1.613Zm17.845,6.148h-6.551l8.665-17.135h6.857l3.422,17.135H563.5l-.195-2.114h-4.743Zm5.146-6.245-.306-3.018a16.929,16.929,0,0,1-.1-2.211h-.195L560.288-37.5Zm10.988-10.89h6.245L578.23-36.822h5.244l-.9,5.438H571.179Zm12.991,0h6.245l-1.808,11.586h5.244l-.9,5.438H584.169Zm13,0h6.245l-2.712,17.135h-6.245Zm11.294,17.135h-6.551L613.2-48.408h6.857l3.422,17.135h-6.551l-.195-2.114h-4.743Zm5.035-6.245-.195-3.018a16.918,16.918,0,0,1-.1-2.211h-.195L613.711-37.5Zm10.988-10.89h5.953l4.131,9.472h.195a21.654,21.654,0,0,1,.195-4.339l.807-5.146h5.953l-2.726,17.135h-5.953l-4.034-8.971h-.306a19.528,19.528,0,0,1-.195,3.422l-.9,5.55h-5.953Zm31.253,6.954a4.732,4.732,0,0,0-3.422-1.711A4.2,4.2,0,0,0,651-39.84a2.821,2.821,0,0,0,2.921,3.324,5.862,5.862,0,0,0,3.825-1.613l-1.21,6.356a14.283,14.283,0,0,1-4.534.709c-4.84,0-8.067-3.825-7.358-8.665A10.772,10.772,0,0,1,655.02-48.7a10.441,10.441,0,0,1,4.034.709Zm3.018-6.954h11.489l-.709,4.632h-5.244l-.306,1.613h4.84l-.709,4.437H665.91l-.306,1.711h5.438l-.709,4.632h-11.7Z" transform="translate(-469.965 48.7)" fill="#20458f"/>
    </g>
    <path id="Tracé_9404" data-name="Tracé 9404" d="M1861.841-173.079c0-.709.4-1.21.195-1.711,0-.1-.195-.1-.195-.195a5.975,5.975,0,0,1,.5-1.4c-.306-.306-.807-.5-1-.9.195-.1.4,0,.6,0,.1-.306,0-.6.1-.9-.9-.195-.5-1.307-.5-2.017-1-.195-1.307-.9-1.516-1.711h.6a2.891,2.891,0,0,1,.306-1.808c-.709-.807-1.711-1.4-1.711-2.615a.89.89,0,0,0-.709,0,2.579,2.579,0,0,0-.1.807c-.306,0-.6.1-.9-.1a13.1,13.1,0,0,1,.5-2.114c-.6-.306-1.307-.1-1.808-.4.1-.306.195-.6.306-.9-.1-.1-.4-.195-.4-.4a.925.925,0,0,0,.1-.5,2.44,2.44,0,0,0-.709-.4c-.1.195-.1.4-.306.5-.709-.4-.807-1.21-1.808-1.4,0-1.113-.709-1.307-1.613-.9-.306-.195-.5-.807-1-1.21-.195-.1-.5-.195-.709-.306a9.117,9.117,0,0,0-1.21-.709,5.517,5.517,0,0,1-1.21-.306,17.338,17.338,0,0,1-2.114-1.113c-1.113-.4-1.113.6-2.114.306-.1-.306.195-1-.4-1-.6.4-.1.9,0,1.4-1.21,0-1.307-1.21-2.114-1.613a1.834,1.834,0,0,1-1.4,1.113c-.5-.9-1.808-.5-2.823-.9a3.479,3.479,0,0,1-2.323.306c-.195,0-.4-.195-.6-.1-.709.1-.807.9-1.516,1.113-1.613-.1-2.114,1.4-3.727,1.21-.195.5.1.807,0,1-.709.1-1.808-.709-2.114-.195,0,.195.4.195.5.4,0,.306.195.807.1,1.113a4.12,4.12,0,0,0-1-.306,2.547,2.547,0,0,1-2.323.709c.1.4.709.9.6,1.613-.4.1-1.113-.1-1.4.195-.1.195.306.1.195.4a5.359,5.359,0,0,1-.6,1.307c-.5.195-1.516-.195-1.711.5.5.306.9.709,1.307,1a11.268,11.268,0,0,1-.1,1.808c0,.4.195.709.1,1.113-.1.5-.5.9-.5,1.4a6.362,6.362,0,0,0,.9.6,2.991,2.991,0,0,0,1.307,3.533c0,.4.1.807-.195,1.113-.4-.5-1.113-.5-1.711-.709a4.617,4.617,0,0,1-1.919-1.711,7.739,7.739,0,0,1-.807-2.114L1818-181.4c0-.5-.1-.9-.1-1.4-.306-.4-1-.709-1-1.21,0-.709,1.307-1.808,1.21-2.615-.195-.5-1.307-.306-1-1.113.195-.306.807.1.9-.306-.306-.5-.9-.709-1.307-1.113,0-.306.195-.6.4-.5.1.195.5.6.709.4a.1.1,0,0,1,.1-.1c0-.306-.5-.306-.6-.5a9.009,9.009,0,0,0,1.21-1.4c0-.1-.306,0-.195-.195.1-.306.4-.306.5-.709-.195-.1-.5.1-.709,0,.6-.4,1.516-.9,1.613-1.919.306-.4.807-.4,1.21-.709.195-.9-.5-1.307-.306-2.211.6-.4,1.808-.4,2.42-.9.4-.4.195-.807.306-1.307.1-.4.4-.5.6-.9a14.91,14.91,0,0,0,3.018-.4c.1-.5-.195-.807.1-1.307,1.307,0,2.42-.1,3.129-1.113,1.307.1,2.615.1,3.825.195a.96.96,0,0,1,.4-.5h.5c.6.6,1.808.709,2.823,1h.1a5.951,5.951,0,0,1,1.711.4,4.1,4.1,0,0,0,2.212-.306l.5-.195s1.113.306,1.808.4c.709.195.195.1.807,0,.5-.1.6-.1,1.711.306.1,0,.195.1.306.1l1.113-.306s1.113.306,1.4,1a1.149,1.149,0,0,0,1.21.6c.306,0,1.307-.1,1.614-.1h.195c.195-.807.807-1,1.614-.9.1-.4.5-.306.5-.9-.807-.1-.807-1.113-1.21-1.307s-.9-.1-1.307-.306c-.6-.195-.807-.709-1.307-.9.1-.195.195-.4.306-.6-.5,0-.709.195-1.113.1-.5-.1-.6-.6-1-.5-.306,0-.306.306-.6.306-.4-.195-.9-.306-1.307-.5-1.516.6-1.919-1.307-3.129-1.113-.5.195-.9.709-1.613.6-.807-.1-1.113-.9-1.808-1.113-.4-.1-.9,0-1.307-.1a15.6,15.6,0,0,1-3.129-.9c.1-.5-.4-.6-.9-.709,0,.4.4.6.306,1h-2.114c-.1,0-.1.306-.195.306-1,.1-1.919.5-2.921.6-.195.807-.4,1.613-1.113,1.711-.5-.1-.6-.807-.9-1a11.678,11.678,0,0,0-2.323-.6c-.807.195,0,1.711-.709,2.114-.4,0-.9-.306-1.307-.306a3.9,3.9,0,0,0-.5.709,5.488,5.488,0,0,0-2.42,1.4c-1.307.195-1.919,1.516-3.129,1.711a2.085,2.085,0,0,0-.4,1.307c0,.195.195.1.306.306a1.777,1.777,0,0,0-.1.6c-.306,0-.4-.306-.6-.4-.6-.195-1.307.195-1.808.195a1.441,1.441,0,0,1-.195.6c-.1,0-.306-.1-.306,0a4.581,4.581,0,0,0-.9,1.711c-.195-.1-.306,0-.5,0a3.32,3.32,0,0,1,0,2.211c-.807,0-.709-.709-1.4-.6a8.818,8.818,0,0,1-.4,1.613.96.96,0,0,1,.5.4l-.1.6c-1.307.5-1.4,2.726-1.307,3.936.1.807.709,1.516.306,2.42a3.229,3.229,0,0,1-.9-.4c-.306.195-.6.306-.709.807.5.195.709-.1,1,0,0,.4.306.807.306,1.307,0,.195-.1.4-.1.6,0,.5.306,1,.195,1.4.306.195.6.1.9.195.306-.195.306-.709.9-.5a6.812,6.812,0,0,0-.6,1.711c-.4.1-.9,0-1.113.306-.306.5,1.307,1.808,1,2.42.9.195.709,1,.709,1.711.5.306,1.21-.1,1.516.4-.6,1.307.306,2.017.5,2.921a1.874,1.874,0,0,0-1-.195l-.1.306c.6.5,1.307-.1,1.919.306,0,.1-.1.306,0,.306a3.815,3.815,0,0,1,1.307.4,2.533,2.533,0,0,1,0,1.21c.1.195.306.306.5.5a11.135,11.135,0,0,1,1.711.709,4.855,4.855,0,0,0,1.4.807c.5.1,1-.306,1.516,0-.1.306-.4.195-.5.306v.4a2.941,2.941,0,0,1,1.307,1.4,5.919,5.919,0,0,0,1.307-.1c.9.1,1.711.9,2.615.709.1,0,.1-.306.306-.195,1.516.306,2.726.807,4.131,1.113a4.965,4.965,0,0,0,1.21-2.017.869.869,0,0,1,.195.709c1.21,1,1.613-.9,2.921-.1-.195.6.5,1.113,1,1a1.169,1.169,0,0,0-.6-1.113c.4-.709,1.307-.6,2.211-.5a2.948,2.948,0,0,1,2.114-1.307c0-.306.195-.306.195-.6a1.923,1.923,0,0,0,1-.1c.4-.1,1,0,1-.6-.195-.306-.6-.306-.807-.4.5-.709,1.516-.709,2.211-1.307-.306-.6-.6-2.114.4-2.211a3.006,3.006,0,0,1,.6-1.113c-.1-.306-.4-.6-.306-1a5.1,5.1,0,0,1,1.808-.195c.1-1.711-.6-2.921-.306-4.84-.807-.9-2.114-1.307-1.711-2.921-.6-.4-1.113-.5-1.613-.807s-.807-.807-1.307-1.113c-.4-.195-1-.195-1.613-.4-.5-.9-2.114-.6-3.129-.709a.925.925,0,0,1,.1-.5,1.988,1.988,0,0,0-2.42.306l-.306-.1c0,.1,0,.306-.1.195-.709-.4-2.323-.807-2.017.5a16.285,16.285,0,0,0-1.711,2.517c-.195.5-.306,1.113-.9,1.113-.306.5-.6.9-.9,1.4l-.4-.1a4.434,4.434,0,0,1,1-2.823c-1-1.4.6-3.227,1.808-3.324.195-.5.306-1,.5-1.516a1.468,1.468,0,0,1,1.113,0,16.176,16.176,0,0,1,3.018-.807c.5.6,1.4.195,1.919,0,.306.195.5.1.709.195.5.195,1,.807,1.4.9s.195-.195.5-.306c.1-.1.195.1.306,0,.195-.195.195-.5.5-.5a3.763,3.763,0,0,1,1.113.4c0,.5-.5.306-.5.709,0,.6,2.017,1,2.726,1.711.306.306.306.6.5.9a8.136,8.136,0,0,1,1.92.709c0,.4.195.709.195,1,0,.195-.306,0-.306.195-.306,1.21.9,1.516,1.613,2.211a2.159,2.159,0,0,1,.4.6c.709.807,1.307,1,.709,2.726a4.459,4.459,0,0,0,1.21,1.113,17.671,17.671,0,0,1-.4,1.919,4.465,4.465,0,0,0,1.919,1.113.868.868,0,0,1-.709.195c-.5,1,.709,1.21.5,2.211-.5-.195-1.21-.6-1.711-.306,0,.195.1.195,0,.4.4.195,1.113.195,1.4.4.1.6-.9.6-1.4.709,0,.195-.1.195-.1.4.306.5,1.113.709,1.113,1.4-.4-.195-.709-.306-1.113-.5-.306.709-.6,1.516-1.307,1.516-.195,0-.5-.306-.709,0,.1.306.5.4.807.6l-.1.4c.1,0,.306,0,.306.1-.195.6-.6.709-.807,1.21l-.9-.195c-.1.195-.1.6-.306.807a11.387,11.387,0,0,1-2.517-.4,2.3,2.3,0,0,1,.195,1.21,1.532,1.532,0,0,1-.9.195,1.426,1.426,0,0,0,0,.9,1.92,1.92,0,0,1,.807.4.466.466,0,0,0,0,.5c-1,.5-1.613-.6-2.823-.709-.4.6-.5,1.613-1.21,1.808-.6.195-1.21-.306-2.017-.4-.1.306.1.5,0,.709,0,.306-.4.6-.306,1-.195.195-.5.195-.709.4-.306,1.113-1.21,1.113-2.212,1.21a6.858,6.858,0,0,1-1.307.1c-.4-.1-.9-.6-1.516-.807a6.4,6.4,0,0,1-1.711-.5c0-.4.195-.6.4-1-.5-.306-.6.5-1.21.306,0,.1,0,.306-.1.306-1.113-.1-1.808.4-2.017,1.711a37.439,37.439,0,0,0-3.728-.9,2.972,2.972,0,0,1-2.615,1c-.4-.6-.6-1.21-1.307-1.613-.1,0,.1-.195,0-.306-2.211.807-3.728-1.4-6.05-1.711a11.35,11.35,0,0,0-1.919-1.919c-.709-.5-1.4-1.21-2.114-1,.1-1.516-2.211-.9-2.211.4a6.8,6.8,0,0,1,1.919,2.517c1.516.709,3.324,1.307,3.825,2.615.306.1.6.195.9.306v.6c.9-.1,1.307.5,2.017,1a3.48,3.48,0,0,1,1.516,1.711,3.059,3.059,0,0,1,1.307.195c0,.306-.1.807-.1,1.113.1.1.306.1.4.306a3.632,3.632,0,0,1,2.517,0c.807.807,2.42,2.211,3.728,1.307a20.033,20.033,0,0,0,2.517,1.21c.709-.195,1.113-.4,1.808-.1.4.195.709.6,1,.709.6.195.807-.807,1.4-.9a5.81,5.81,0,0,1,1,.195,1.559,1.559,0,0,1,.4-.709,2.816,2.816,0,0,0,.9,0c.1.5,1,.5,1.516.807-.1.306.195.4.5.5a2.919,2.919,0,0,0,.306-.5c.1.1.195,0,.306,0,.5-.6.9-1.711,1.808-1.711,0,.4.4.5.195,1a20.27,20.27,0,0,0,2.42-.195l-.1.5c.5.1.6.306.9.6l1,.195c.1-.4.195-.6.306-1a3.751,3.751,0,0,1,1-.195c.195-.9,1.113,0,1.711-.195.306-.5-.5-.807-.4-1.4.4.1.709.4,1.21.4.6,0,.9-.807,1.516-1,.709-.306,1.21-.1,1.808-.4a1.087,1.087,0,0,1,1-.709l.1-.4c.9-.195,1-1.613,1.4-2.615a2.954,2.954,0,0,1,1.307,0l.1-.306a8.2,8.2,0,0,0,2.114-1c.195-.9,1.113-1.113,1.113-2.017,0-.4-.807-.807-.709-1.113.1-.6,1.21-.1,1.919-.195.1-.195,0-.306,0-.5.195.1.195,0,.4,0a3.767,3.767,0,0,0,1-2.211,6.949,6.949,0,0,0,1.307-4.84c.4,0,.9,0,1.113-.306-.111-.334-.918-.835-.918-1.641Z" transform="translate(-1301.96)" fill="#f0892e"/>
  </g>
</svg>
